<svg xmlns="http://www.w3.org/2000/svg" viewBox="0 0 1920 967.23"><defs><style>.cls-1{fill:#fff;}.cls-2{fill:#93278f;}</style></defs><g id="Layer_2" data-name="Layer 2"><g id="Layer_1-2" data-name="Layer 1"><path class="cls-1" d="M142,885.77l0,0-.48.27-.53.26c-.15.07-.29.14-.45.2s-.45.17-.68.24l-.55.16-.58.13a9.68,9.68,0,0,1-1.22.16h-.36a9.9,9.9,0,0,1-1.22,0c-.26,0-.52-.06-.78-.1a9,9,0,0,1-1.53-.38,11.5,11.5,0,0,1-1.29-.51c-.35-.17-.7-.36-1-.56a4,4,0,0,1-.52-.32l-.05-.05Z"/><path class="cls-1" d="M395.5,805.49q-.31.81-.66,1.77Q395.17,806.32,395.5,805.49Z"/><path class="cls-1" d="M600.85,856.39c-1.08.72-2.15,1.48-3.22,2.26C598.7,857.86,599.77,857.11,600.85,856.39Z"/><path class="cls-1" d="M626.88,847.79c-.84,0-1.68,0-2.52,0C625.2,847.74,626,847.75,626.88,847.79Z"/><path class="cls-1" d="M640.69,851.75c-.94-.5-1.89-1-2.83-1.36C638.8,850.79,639.75,851.25,640.69,851.75Z"/><path class="cls-1" d="M1719.41,952.33l-.26.06c-.3.08-.61.15-.92.21a.47.47,0,0,1-.17,0c-.4.1-.8.19-1.21.27q-2.85.6-5.78,1a57.26,57.26,0,0,1-9,.39l-.45,0c-.35,0-.7,0-1-.06s-.69,0-1-.08a45.87,45.87,0,0,1-5.22-.74l-.84-.17c-.74-.16-1.47-.33-2.19-.53l-.8-.22c-.45-.13-.89-.26-1.33-.41l-.8-.26c-.78-.26-1.55-.54-2.3-.85Z"/><path class="cls-2" d="M1920,80.71V960.79c-22.44-28-50.53-51.6-87.12-55.61a61.07,61.07,0,0,0-8.61-.34l-.71,0c-1,0-2,.1-3,.19l-1,.09c-.61.06-1.23.14-1.84.23-.37,0-.75.09-1.12.15-.62.09-1.24.19-1.86.31-.29,0-.58.1-.87.16-.91.17-1.81.36-2.72.58l-1,.24c-.44.1-.88.22-1.33.34l-.71.2c-.7.19-1.4.39-2.1.62-.48.14-1,.29-1.43.45l-.44.15c-.57.18-1.14.38-1.7.59-1,.34-1.92.7-2.87,1.08-1.12.44-2.24.91-3.35,1.4-.28.11-.55.23-.82.36-4.13,1.84-8.18,4-12.2,6.24L1782,919c-1.21.7-2.41,1.41-3.62,2.13-1.52.91-3,1.85-4.55,2.8-4.9,3-9.77,6.22-14.66,9.31l-2.41,1.52-.48.3-2.37,1.46-2.79,1.7c-3.81,2.28-7.66,4.44-11.56,6.4l-1.38.69c-1,.47-1.9.92-2.86,1.35-.59.28-1.19.54-1.79.8q-2.7,1.18-5.44,2.2c-1,.37-2,.72-3.07,1.06-1.26.41-2.54.8-3.82,1.14l-.73.2-.83.21-.17.05h0L1686,950.92c-.74-.28-1.46-.59-2.18-.93-.21-.09-.43-.19-.64-.3a3.55,3.55,0,0,1-.44-.21c-.29-.13-.57-.27-.85-.42a4.16,4.16,0,0,1-.47-.24c-.41-.21-.81-.43-1.21-.65-.62-.34-1.23-.69-1.83-1.06l-1.05-.66c-.66-.41-1.3-.84-1.94-1.29l-.78-.55-.77-.57-.76-.57c-.51-.38-1-.78-1.51-1.19l-.74-.61a83.45,83.45,0,0,1-6.42-6l-1-1c-.36-.38-.73-.76-1.08-1.16l-.68-.74c-.9-1-1.78-2-2.65-3l-1.31-1.55-.32-.39c-.33-.39-.65-.79-1-1.18s-.43-.53-.64-.79c-.43-.54-.86-1.07-1.28-1.61-.82-1-1.64-2.09-2.45-3.15s-1.62-2.12-2.42-3.19c-.67-.88-1.33-1.76-2-2.65-2.55-3.43-5.1-6.89-7.69-10.3-1.63-2.14-3.27-4.26-5-6.33-2.17-2.67-4.38-5.27-6.68-7.74-.38-.41-.75-.81-1.14-1.2s-1-1.05-1.53-1.57c-.33-.34-.67-.67-1-1q-2.28-2.24-4.69-4.25l-.69-.58c-.38-.31-.76-.62-1.15-.92s-1-.81-1.56-1.2a61.94,61.94,0,0,0-6.36-4.15c-.64-.36-1.28-.71-1.94-1-53.49-27.55-102.5,30.9-148,49.69-51.18,21.13-83.8-21.77-116.84-53.42-48.26-46.23-110.61-35.61-168.14-15.46-56.19,19.68-115.26,40.42-175.58,29.56-49.57-8.93-90.18-54.78-142.2-52l-1.46.09-1,.08-1.88.17c-.82.09-1.63.19-2.44.3l-.62.09c-.59.08-1.18.18-1.76.28l-1.13.19a77.1,77.1,0,0,0-8.66,2.12l-1.59.5-.46.16-1.58.55-1.66.62-.92.36-.92.38c-.61.25-1.22.51-1.82.78-1.69.75-3.34,1.56-5,2.42-.4.2-.81.42-1.21.65-.7.38-1.4.77-2.1,1.18l-.3.18-1.18.71-1.31.8-1,.66c-.55.36-1.1.72-1.64,1.09l-1.62,1.13-1.44,1c-.71.52-1.42,1.06-2.12,1.61a2.92,2.92,0,0,0-.28.21c-.7.54-1.39,1.09-2.08,1.65S807,854.46,806.3,855s-1.19,1-1.77,1.54-1.16,1-1.73,1.55c-10.19,9.32-19.32,20.44-28.17,31.9-1.08,1.4-2.16,2.8-3.22,4.2q-3.43,4.49-6.83,9l-1.71,2.24q-2.43,3.18-4.87,6.32c-1.73,2.22-3.47,4.42-5.23,6.58-.23.3-.47.58-.71.87-.72.9-1.45,1.78-2.19,2.66-.44.54-.89,1.07-1.35,1.61q-1.42,1.68-2.86,3.31c-.6.69-1.2,1.37-1.81,2s-1.21,1.34-1.83,2l-.9,1c-.42.46-.85.91-1.28,1.36l-1.25,1.29c-1.73,1.77-3.48,3.47-5.27,5.11-.44.41-.88.82-1.33,1.21-1.1,1-2.21,2-3.33,2.89-.95.79-1.89,1.54-2.81,2.25-.61.47-1.22.93-1.82,1.36-.9.65-1.78,1.27-2.65,1.84s-1.72,1.1-2.55,1.59c-1.4.82-2.75,1.53-4.07,2.14-.52.24-1,.47-1.56.68-1,.43-2,.78-3,1.08l-1.45.39a21.7,21.7,0,0,1-7.08.62l-.77-.08c-.2,0-.41,0-.61-.09l-.63-.11-.33-.07c-.26,0-.51-.11-.76-.18s-.52-.14-.77-.22l-.35-.11-.36-.12-.54-.2-.45-.18-.64-.28a26,26,0,0,1-9.32-7.85c-.31-.39-.61-.79-.91-1.2-.67-.92-1.31-1.89-1.94-2.9-.15-.23-.3-.47-.44-.71a76.35,76.35,0,0,1-4.46-8.72c-.25-.56-.5-1.12-.74-1.7-.68-1.6-1.34-3.26-2-5-.37-1-.74-2-1.1-3-1.71-4.78-3.3-9.81-4.84-14.89-.62-2.06-1.24-4.13-1.85-6.19l-.54-1.82c-1.46-4.93-2.91-9.81-4.41-14.45-.15-.49-.31-1-.47-1.45-.35-1-.7-2.09-1.05-3.11-.18-.51-.36-1-.53-1.52,0-.12-.09-.24-.13-.36-.21-.59-.43-1.16-.64-1.74L660,877c-.18-.47-.36-1-.54-1.41-.24-.61-.47-1.2-.71-1.79l-.63-1.5c-.27-.65-.55-1.28-.83-1.9l-.48-1c-.21-.46-.43-.92-.66-1.36a.05.05,0,0,0,0,0q-.33-.69-.69-1.35a.91.91,0,0,0-.07-.14l-.63-1.16c-.24-.43-.48-.84-.72-1.25l-.62-1c-.49-.76-1-1.47-1.48-2.15l-.51-.67c-.23-.3-.47-.59-.71-.87s-.3-.35-.46-.52a19.94,19.94,0,0,0-2.4-2.31,44.86,44.86,0,0,0-7.11-4.77c-.94-.5-1.89-1-2.83-1.36l-.7-.29c-.29-.12-.58-.24-.88-.34-.58-.22-1.17-.42-1.75-.6-.29-.1-.59-.18-.88-.26q-1-.3-2.1-.51a28.2,28.2,0,0,0-3.13-.48c-.51,0-1-.09-1.54-.12-.84,0-1.68,0-2.52,0l-.66,0c-.32,0-.65,0-1,.07s-.65.06-1,.09c-.75.08-1.51.19-2.26.33-.57.1-1.13.22-1.69.34l-1,.26-.9.24-1.1.33c-.54.17-1.07.35-1.61.55l-1,.37-.41.17-1,.39-.51.22c-.63.28-1.26.56-1.88.87l-.45.22c-.65.32-1.29.66-1.93,1s-1.28.71-1.92,1.09-1,.62-1.54.94a.24.24,0,0,0-.09.06l-1.43.92-.19.13c-1.08.72-2.15,1.47-3.22,2.26l-1.6,1.21c-.53.4-1.06.82-1.59,1.25l-.19.15c-1,.81-2,1.63-3,2.48q-2.6,2.24-5.14,4.65l-.73.69c-.73.7-1.45,1.41-2.17,2.12-.42.42-.84.83-1.26,1.26l-.9.9c-1,1-1.91,2-2.85,2.95l-.7.74c-2.84,3-5.64,6.07-8.37,9.14q-1.57,1.75-3.12,3.51c-4.13,4.66-8.15,9.24-12,13.46-5.51,6-10.76,11.2-15.72,14.89-.38.28-.76.56-1.14.82s-.76.52-1.13.77c-.68.45-1.36.88-2,1.29s-1.34.82-2,1.2c-1,.58-2,1.12-3,1.63-.65.34-1.29.66-1.93,1-8.7,4.2-16.54,5.65-23.62,5l-1.5-.18-.15,0c-.47-.07-.95-.15-1.42-.24l-.47-.09-.53-.11L499,929l-.62-.15a30.28,30.28,0,0,1-3.24-1l-.68-.25-.2-.08-1-.41c-.74-.31-1.48-.65-2.2-1l-.72-.37a1.19,1.19,0,0,1-.22-.12c-.4-.21-.79-.43-1.18-.66a44.76,44.76,0,0,1-6.75-4.84L481,919l-.21-.19c-.38-.34-.75-.7-1.11-1.05-.79-.77-1.56-1.56-2.32-2.39l-.71-.78-.37-.42c-.38-.43-.76-.87-1.13-1.32s-.55-.65-.82-1c-.57-.7-1.13-1.42-1.68-2.15l-.34-.45c-.5-.67-1-1.35-1.47-2-.35-.49-.69-1-1-1.49s-.68-1-1-1.53-.62-1-.92-1.44c-.69-1.09-1.35-2.19-2-3.32-.33-.55-.65-1.11-1-1.67q-1.5-2.67-2.9-5.45c-.31-.61-.62-1.22-.92-1.84-.39-.78-.77-1.57-1.14-2.36s-.72-1.53-1.07-2.3c-.28-.6-.55-1.21-.82-1.81-.43-1-.86-2-1.28-2.94s-.88-2.09-1.31-3.13q-.93-2.28-1.82-4.57c-.25-.64-.5-1.29-.74-1.94s-.49-1.28-.73-1.93-.48-1.29-.71-1.93c-.11-.29-.22-.58-.32-.87-.23-.62-.45-1.24-.67-1.86-.13-.37-.27-.74-.39-1.11-.23-.64-.45-1.27-.67-1.91-.73-2.07-1.42-4.13-2.1-6.16-.25-.76-.5-1.52-.74-2.27-.31-.92-.6-1.83-.89-2.73s-.58-1.79-.86-2.68c-.85-2.65-1.66-5.22-2.44-7.67-7.34-23.21-23.13-78.38-45.63-37.64a25.59,25.59,0,0,0-1.28,2.82q-.33.82-.66,1.77c-.79,2.22-1.64,5-2.55,8.16-.11.37-.21.75-.32,1.14-.47,1.66-1,3.44-1.44,5.31l-.59,2.28a2.81,2.81,0,0,0-.08.31c-.22.84-.44,1.71-.66,2.59-.36,1.41-.72,2.87-1.09,4.36-.24,1-.49,2-.73,3s-.49,2-.74,3-.45,1.88-.68,2.83c-.15.65-.31,1.3-.47,2-.24,1-.5,2.11-.75,3.19s-.52,2.2-.78,3.32-.48,2.06-.73,3.11c-.21.88-.41,1.77-.62,2.67l-.42,1.79c-.42,1.79-.85,3.61-1.27,5.44-.14.61-.29,1.22-.43,1.83-1.31,5.6-2.65,11.33-4,17.08l-.87,3.66q-1.35,5.63-2.71,11.21c-1.22,5-2.46,9.9-3.7,14.7-.2.78-.4,1.56-.61,2.34-.49,1.89-1,3.77-1.49,5.62-.25.92-.5,1.84-.74,2.74-1.69,6.16-3.38,12-5.07,17.29l-.39,1.24c-.06.16-.11.33-.17.51-.3.93-.6,1.84-.9,2.74-.95,2.83-1.9,5.49-2.84,7.92-.22.58-.45,1.14-.67,1.69A59.61,59.61,0,0,1,351,963.1l-.4.56a14.56,14.56,0,0,1-1.72,2l-.4.36a5.17,5.17,0,0,1-2,1.09,2.84,2.84,0,0,1-.76.1h-.21c-8-.58-9.43-47.63-10.6-53.58-.15-.76-.31-1.53-.49-2.3-.13-.6-.27-1.21-.42-1.82s-.22-.93-.35-1.4-.24-1-.37-1.44c0,0,0-.1,0-.15-.17-.61-.34-1.22-.52-1.84-.1-.38-.22-.76-.34-1.14s-.3-1-.47-1.56q-.73-2.41-1.62-4.87c-.14-.42-.29-.85-.46-1.28-.07-.21-.15-.43-.23-.64-.18-.51-.37-1-.57-1.54,0-.09-.07-.19-.11-.28q-.48-1.26-1-2.52c-.59-1.48-1.22-3-1.88-4.48-.22-.52-.45-1-.68-1.55-.89-2-1.82-4-2.8-5.94l-.63-1.27c-.65-1.29-1.31-2.58-2-3.87l-.58-1.07q-3.18-5.92-6.9-11.79c-.33-.52-.66-1-1-1.56-.72-1.13-1.47-2.25-2.23-3.37-.32-.48-.65-1-1-1.45-.69-1-1.4-2-2.12-3-.37-.52-.75-1-1.12-1.54-2.4-3.3-4.92-6.53-7.55-9.66-.39-.47-.79-.95-1.19-1.41s-.72-.85-1.09-1.27c-.64-.75-1.3-1.49-2-2.21s-1.29-1.43-1.95-2.13l-.44-.48-1.95-2c-.45-.47-.91-.94-1.37-1.39l-1.65-1.65A144.34,144.34,0,0,0,273,816.45l-1.36-1c-.44-.34-.89-.67-1.33-1a6.75,6.75,0,0,0-.57-.41c-.63-.46-1.25-.91-1.89-1.34q-4.1-2.85-8.33-5.26c-.53-.3-1.06-.6-1.6-.89-.94-.52-1.89-1-2.84-1.49-.51-.27-1-.52-1.55-.77q-2.42-1.17-4.88-2.18l-1.55-.62c-.71-.28-1.43-.55-2.15-.81s-1.45-.5-2.17-.74l-2.13-.66c-.44-.14-.89-.27-1.34-.39l-.83-.22c-.77-.21-1.54-.4-2.31-.58l-1.8-.38a66.34,66.34,0,0,0-9.72-1.29l-1.14-.06a64,64,0,0,0-18.29,1.85c-1.31.32-2.61.69-3.92,1.1a71.22,71.22,0,0,0-11.76,4.92c-.56.3-1.12.6-1.66.92s-1.15.68-1.7,1-1.1.73-1.63,1.11c-.87.62-1.71,1.26-2.52,1.94-.17.13-.34.27-.5.42s-.6.5-.89.77l-.43.39c-.37.33-.74.68-1.09,1l-.32.32a1.33,1.33,0,0,0-.17.16c-.22.22-.44.44-.64.66a3.13,3.13,0,0,0-.31.33c-.47.49-.92,1-1.36,1.49s-.73.85-1.09,1.28q-1.4,1.71-2.67,3.52l-.63.92-.07.11c-.27.39-.54.79-.79,1.19s-.66,1-1,1.56-.64,1-.94,1.59-.53.93-.79,1.4c-.65,1.18-1.27,2.38-1.87,3.6-.26.53-.52,1.06-.76,1.6-.56,1.18-1.1,2.38-1.61,3.58s-.89,2.11-1.31,3.18l0,.09c-.24.57-.46,1.15-.68,1.73s-.44,1.16-.65,1.74c-.43,1.16-.85,2.32-1.25,3.48s-.8,2.32-1.18,3.47-.76,2.29-1.12,3.43c-.47,1.46-.93,2.91-1.38,4.33-.32,1-.64,2-.95,3-.62,2-1.23,3.85-1.84,5.67l-.27.81c-.34,1-.67,2-1,2.91-.17.48-.34,1-.52,1.42-.78,2.1-1.59,4.06-2.45,5.85-.19.4-.38.78-.58,1.16a2.44,2.44,0,0,1-.14.28c-.14.27-.28.54-.43.81a29.56,29.56,0,0,1-1.73,2.79l-.45.62c-.24.32-.49.63-.74.92s-.35.4-.53.59a12.44,12.44,0,0,1-1.35,1.28l-.69.54h0c-.24.17-.49.33-.74.48l-11.33-.48h0a13.72,13.72,0,0,1-1.21-.88,21.51,21.51,0,0,1-1.77-1.59c-.19-.19-.38-.38-.57-.59s-.39-.41-.57-.63-.43-.48-.63-.73c-.36-.42-.71-.86-1.06-1.32l-.56-.73c-.19-.25-.37-.5-.55-.76l-.83-1.18q-.83-1.21-1.65-2.52c-.28-.43-.56-.87-.83-1.32-.68-1.1-1.36-2.24-2-3.4l-1.25-2.13a.25.25,0,0,1,0-.07L116,865.53c-1.72-2.94-3.52-6-5.45-8.95l-.89-1.36q-1.37-2.06-2.83-4c-.41-.56-.83-1.1-1.25-1.65s-.95-1.19-1.44-1.78-.8-1-1.21-1.41c-.89-1-1.82-2-2.78-2.93-.63-.63-1.29-1.23-2-1.82-.34-.3-.68-.58-1-.86l-1-.83c-.35-.27-.71-.54-1.07-.79s-.72-.52-1.09-.76-.82-.54-1.24-.79-.64-.39-1-.57l-.27-.16-.84-.45c-.77-.4-1.57-.78-2.38-1.13-.44-.19-.89-.37-1.34-.53s-.94-.34-1.42-.5C60,826,28,850.37,0,879.78V59.17C14.72,43.73,34.65,28.94,59.5,26.22,88.7,23,107.69,38.38,141.67,60.76c10.07,6.64,21.46,13.89,34.83,21.46,42.38,24,92.57,56.65,143.4,53.75,27.23-1.55,46.48-15.67,59.46-39.19,3.24-5.86,6.88-19.22,11.41-33.23,6.92-21.43,15.92-44.37,28.73-44.33,14.78.05,22.92,27.64,28,45,1.26,4.32,2.33,8,3.26,10.47,30.61,80.94,95.95,156,179.89,183.22,60.64,19.66,124,6.57,175.49-29.83,25.74-18.22,48-41.23,66.56-66.63,14.47-19.78,25.46-58.09,48.83-68.2,36.5-15.79,75.84,25.49,103.83,43,62.33,39.08,139.22,43.79,207.82,19.15a289.64,289.64,0,0,0,95.39-57.33c7.1-6.39,13.92-15,21-23.77,14.23-17.68,29.49-36.27,50.14-39.8,26.62-4.54,36.46,20.9,49.36,40.92,5.29,8.21,11.09,15.51,18.76,19.46,21.69,11.18,38-1.89,53.52-18.65,18.21-19.65,35.43-44.35,59.17-41,18.37,2.58,31.26,20.06,41,42.14,14.13,32.13,21.55,74,29.43,93.74,22.94,57.54,45.92-72.79,49.64-87.37.46-1.79.93-3.61,1.43-5.47,6.5-24.41,16.64-54,36.44-69.72,30.11-23.93,59.54,7.59,78,31.14,3.51,4.47,11.53,23.74,18.28,40.07,5.43,13.18,10,24.44,10.78,24.47,4.36.14,7.49-12.2,9.68-24.24,1.78-9.79,2.94-19.39,3.64-21.92,11.79-43.09,36.45-19.26,51.23,5.38Q1915.19,72,1920,80.71Z"/><path class="cls-1" d="M142,885.77l0,0-.48.27-.53.26c-.15.07-.29.14-.45.2s-.45.17-.68.24l-.55.16-.58.13a9.68,9.68,0,0,1-1.22.16h-.36a9.9,9.9,0,0,1-1.22,0c-.26,0-.52-.06-.78-.1a9,9,0,0,1-1.53-.38,11.5,11.5,0,0,1-1.29-.51c-.35-.17-.7-.36-1-.56a4,4,0,0,1-.52-.32l-.05-.05Z"/><path class="cls-1" d="M395.5,805.49q-.31.81-.66,1.77Q395.17,806.32,395.5,805.49Z"/><path class="cls-1" d="M600.85,856.39c-1.08.72-2.15,1.48-3.22,2.26C598.7,857.86,599.77,857.11,600.85,856.39Z"/><path class="cls-1" d="M626.88,847.79c-.84,0-1.68,0-2.52,0C625.2,847.74,626,847.75,626.88,847.79Z"/><path class="cls-1" d="M640.69,851.75c-.94-.5-1.89-1-2.83-1.36C638.8,850.79,639.75,851.25,640.69,851.75Z"/><path class="cls-1" d="M1719.41,952.33l-.26.06c-.3.08-.61.15-.92.21a.47.47,0,0,1-.17,0c-.4.1-.8.19-1.21.27q-2.85.6-5.78,1a57.26,57.26,0,0,1-9,.39l-.45,0c-.35,0-.7,0-1-.06s-.69,0-1-.08a45.87,45.87,0,0,1-5.22-.74l-.84-.17c-.74-.16-1.47-.33-2.19-.53l-.8-.22c-.45-.13-.89-.26-1.33-.41l-.8-.26c-.78-.26-1.55-.54-2.3-.85Z"/><path class="cls-1" d="M142,885.77l0,0-.48.27-.53.26c-.15.07-.29.14-.45.2s-.45.17-.68.24l-.55.16-.58.13a9.68,9.68,0,0,1-1.22.16h-.36a9.9,9.9,0,0,1-1.22,0c-.26,0-.52-.06-.78-.1a8.15,8.15,0,0,1-1.53-.38,11.5,11.5,0,0,1-1.29-.51c-.35-.17-.7-.36-1-.56a4,4,0,0,1-.52-.32.18.18,0,0,1-.07-.05h0Z"/><path class="cls-1" d="M395.5,805.49q-.31.81-.66,1.77Q395.17,806.32,395.5,805.49Z"/><path class="cls-1" d="M600.85,856.39c-1.08.72-2.15,1.48-3.22,2.26C598.7,857.86,599.77,857.11,600.85,856.39Z"/><path class="cls-1" d="M626.88,847.79c-.84,0-1.68,0-2.52,0C625.2,847.74,626,847.75,626.88,847.79Z"/><path class="cls-1" d="M640.69,851.75c-.94-.5-1.89-1-2.83-1.36C638.8,850.79,639.75,851.25,640.69,851.75Z"/><path class="cls-1" d="M1719.41,952.33l-.26.06c-.3.08-.61.15-.92.21a.47.47,0,0,1-.17,0c-.4.1-.8.19-1.21.27q-2.85.6-5.78,1a57.26,57.26,0,0,1-9,.39l-.45,0c-.35,0-.7,0-1-.06s-.69,0-1-.08a45.87,45.87,0,0,1-5.22-.74l-.84-.17c-.74-.16-1.47-.33-2.19-.53l-.8-.22c-.45-.13-.89-.26-1.33-.41l-.8-.26c-.78-.26-1.55-.54-2.3-.85Z"/></g></g></svg>